<svg width="49" height="49" viewBox="0 0 49 49" fill="none" xmlns="http://www.w3.org/2000/svg">
<path d="M24.4999 48.7918C37.9158 48.7918 48.7916 37.9161 48.7916 24.5002C48.7916 11.0842 37.9158 0.208496 24.4999 0.208496C11.084 0.208496 0.208252 11.0842 0.208252 24.5002C0.208252 37.9161 11.084 48.7918 24.4999 48.7918Z" fill="#06A72A"/>
<path d="M32.2152 17.3417C32.9762 16.5808 34.2099 16.5808 34.9709 17.3417C35.7318 18.1027 35.7318 19.3364 34.9709 20.0973L23.2797 31.7885C22.5187 32.5495 21.285 32.5495 20.5241 31.7885L14.029 25.2934C13.268 24.5325 13.268 23.2987 14.029 22.5378C14.7899 21.7768 16.0237 21.7768 16.7846 22.5378L21.9019 27.6551L32.2152 17.3417Z" fill="white"/>
</svg>
